<svg xmlns="http://www.w3.org/2000/svg" width="19.44" height="11.24" viewBox="0 0 19.44 11.24"><path d="M19.44 5.66v.07a.75.75 0 0 1-.2.41c-.2.25-.43.48-.65.71a16.8 16.8 0 0 1-4.12 3.12 11.03 11.03 0 0 1-3.1 1.12 8.98 8.98 0 0 1-3.54-.05 13.4 13.4 0 0 1-5.5-2.86A14.95 14.95 0 0 1 .22 6.14a.78.78 0 0 1 0-1.04c.2-.25.43-.48.65-.71a16.77 16.77 0 0 1 4.12-3.12A11 11 0 0 1 8.1.15a9 9 0 0 1 3.54.05 13.4 13.4 0 0 1 5.5 2.86 14.92 14.92 0 0 1 2.11 2.04.75.75 0 0 1 .2.4v.16ZM9.72 1.83a3.65 3.65 0 1 0 3.65 3.64 3.65 3.65 0 0 0-3.65-3.64Zm0 5.46a1.82 1.82 0 1 1 1.82-1.82A1.82 1.82 0 0 1 9.72 7.3Z" fill="#95e1d3"/></svg>